<?xml version="1.0" standalone="no"?>
<!DOCTYPE svg PUBLIC "-//W3C//DTD SVG 20010904//EN"
 "http://www.w3.org/TR/2001/REC-SVG-20010904/DTD/svg10.dtd">
<svg version="1.0" xmlns="http://www.w3.org/2000/svg"
 width="1024.000000pt" height="576.000000pt" viewBox="0 0 1024.000000 576.000000"
 preserveAspectRatio="xMidYMid meet">

<g transform="translate(0.000000,576.000000) scale(0.100000,-0.100000)"
fill="#000000" stroke="none">
<path d="M0 2880 l0 -2880 5120 0 5120 0 0 2880 0 2880 -5120 0 -5120 0 0
-2880z m4575 1169 c4 -5 -3 -18 -15 -29 -12 -10 -20 -21 -19 -25 3 -13 -36
-75 -48 -75 -7 0 -13 -4 -13 -10 0 -21 -55 -38 -107 -33 -29 3 -53 8 -53 12 0
3 -15 12 -32 19 -77 31 -123 60 -123 77 0 10 -6 20 -13 23 -22 7 -13 19 21 26
17 4 93 9 167 13 74 3 137 7 139 9 10 9 90 3 96 -7z m-1422 -30 c20 -7 37 -17
37 -21 0 -11 -11 -9 -40 7 -47 27 -49 23 -53 -102 l-3 -118 -2 129 c-2 99 1
127 11 123 6 -2 29 -10 50 -18z m1004 -25 c-3 -3 -12 -4 -19 -1 -8 3 -5 6 6 6
11 1 17 -2 13 -5z m-451 -32 c-8 -8 -22 -12 -30 -9 -27 11 -18 26 15 25 27 -1
28 -3 15 -16z m-1207 -156 c37 -76 42 -93 34 -120 -6 -23 -17 -34 -43 -42 -22
-8 -39 -8 -46 -3 -7 6 -16 8 -20 7 -12 -4 -54 39 -47 46 4 3 1 6 -5 6 -15 0
-42 52 -42 80 0 32 36 95 62 108 47 23 61 12 107 -82z m21 49 c0 -8 -4 -15
-10 -15 -5 0 -10 7 -10 15 0 8 5 15 10 15 6 0 10 -7 10 -15z m270 -41 c0 -8
-5 -12 -10 -9 -6 4 -8 11 -5 16 9 14 15 11 15 -7z m-92 -6 c13 -17 41 -160 43
-220 1 -26 -3 -54 -10 -62 -11 -13 -18 -12 -54 7 -23 11 -45 26 -49 31 -11 16
-10 117 3 178 15 75 16 78 37 78 11 0 24 -6 30 -12z m662 -23 c7 -8 9 -15 5
-15 -4 0 -3 -6 3 -12 5 -7 8 -23 6 -35 -2 -12 -4 -26 -5 -30 -4 -27 3 -43 20
-43 11 0 23 5 26 10 12 19 62 10 89 -15 29 -27 52 -74 70 -144 11 -44 36 -68
36 -35 0 9 11 32 26 51 45 59 112 35 161 -61 30 -58 58 -71 115 -54 33 10 41
9 49 -3 14 -23 10 -67 -7 -81 -33 -26 -123 -118 -116 -118 4 -1 -3 -9 -15 -19
-20 -17 -21 -22 -10 -50 13 -35 27 -41 27 -11 0 24 15 27 24 4 10 -27 7 -43
-20 -85 -16 -26 -24 -51 -21 -66 4 -22 -6 -85 -20 -123 -3 -8 -5 -28 -4 -45 1
-22 -1 -26 -8 -16 -5 8 -7 20 -4 26 3 9 -8 11 -41 8 -38 -5 -48 -2 -73 21 -15
14 -31 26 -36 26 -4 0 -17 23 -30 50 l-22 50 -29 -15 c-64 -34 -127 24 -165
153 -16 51 -17 70 -9 95 18 50 37 75 65 82 15 3 35 13 46 20 20 14 20 14 -6
24 -32 12 -72 70 -93 133 -8 27 -19 48 -22 47 -4 0 -21 -19 -37 -42 -36 -50
-59 -55 -111 -28 -21 12 -44 21 -51 21 -7 0 -18 9 -25 20 -15 24 -28 26 -28 5
0 -22 -29 -75 -40 -75 -15 0 -12 54 5 86 31 59 10 93 -31 49 -13 -14 -24 -33
-24 -42 0 -29 -23 -93 -34 -94 -6 0 -24 -3 -40 -5 -83 -14 -155 63 -142 153 4
26 7 55 8 63 2 21 35 53 59 57 11 2 30 -2 42 -9 39 -22 75 -21 87 2 6 12 9 26
6 33 -2 7 -5 4 -5 -5 -2 -30 -21 -20 -21 10 0 35 36 61 45 33 3 -11 5 -23 4
-27 -4 -23 4 -20 41 16 40 39 94 62 127 54 10 -2 32 0 48 5 46 14 91 13 105
-4z m483 -38 l57 -22 -2 -145 -2 -145 -3 141 -4 142 -62 22 c-34 13 -66 28
-72 33 -11 11 -1 8 88 -26z m1875 -113 c-3 -18 -75 -51 -86 -39 -4 4 6 18 21
31 33 28 70 32 65 8z m-3273 -73 c49 -19 74 -75 80 -182 4 -82 3 -95 -17 -127
-20 -32 -20 -36 -4 -47 13 -10 18 -34 22 -96 6 -89 -8 -154 -38 -172 -21 -14
-103 28 -117 60 -6 13 -11 63 -11 110 0 78 3 90 26 121 15 19 22 37 17 41 -9
5 -17 22 -32 61 -3 8 -4 69 -3 134 2 119 11 152 36 122 6 -7 25 -18 41 -25z
m4211 -86 c-11 -8 -23 -15 -28 -15 -4 0 -8 -4 -8 -10 0 -5 8 -10 18 -10 9 0
23 -9 30 -20 16 -26 29 -25 37 1 4 12 10 17 14 12 3 -6 23 -13 44 -16 30 -5
37 -3 37 11 1 16 2 16 14 0 9 -12 27 -18 55 -18 43 0 88 -18 109 -43 18 -22
-58 -67 -113 -67 -43 0 -75 -19 -75 -43 0 -8 3 -8 9 1 6 10 13 9 32 -6 19 -16
21 -22 11 -34 -6 -8 -9 -17 -6 -21 3 -3 -4 -8 -15 -12 -24 -7 -28 -25 -7 -25
7 0 27 -7 42 -15 16 -8 37 -15 47 -15 9 0 17 -7 17 -15 0 -11 11 -15 39 -15
22 0 42 -4 45 -9 10 -15 -22 -33 -44 -26 -15 5 -29 0 -45 -15 -19 -18 -27 -20
-43 -11 -16 8 -24 8 -35 -3 -11 -11 -17 -12 -26 -3 -8 8 -11 8 -11 0 0 -7 -10
-9 -27 -4 -26 7 -36 26 -14 26 5 0 12 3 16 7 10 10 -41 21 -56 12 -9 -5 -10 0
-6 18 6 22 4 25 -17 21 -18 -4 -26 0 -31 17 -4 13 -12 19 -21 16 -7 -3 -16 -1
-19 4 -3 4 1 11 7 13 8 3 6 6 -4 6 -27 1 -21 18 8 25 17 5 30 19 41 44 8 20
21 41 29 45 24 14 16 25 -33 41 -25 9 -54 23 -63 31 -9 8 -53 20 -98 27 -71
10 -87 9 -126 -6 -34 -13 -70 -16 -158 -14 -109 2 -115 1 -161 -26 -27 -16
-51 -35 -54 -43 -4 -11 -8 -12 -13 -3 -12 20 -63 2 -121 -41 -29 -21 -56 -44
-60 -50 -4 -7 -18 -13 -33 -14 -70 -8 -113 -19 -128 -32 -9 -8 -22 -12 -27 -8
-6 3 -29 7 -51 7 -34 0 -40 4 -40 22 -1 20 -1 20 -21 -3 -17 -20 -22 -22 -29
-11 -5 8 -12 11 -16 7 -5 -4 -13 1 -18 12 -11 19 -12 19 -56 -4 -25 -14 -56
-30 -70 -36 -14 -6 -40 -18 -57 -27 -31 -14 -34 -14 -53 3 -11 10 -20 30 -20
45 0 20 -5 27 -17 26 -14 -1 -18 7 -17 34 2 91 30 134 81 124 20 -4 39 -1 47
6 11 8 20 9 35 0 27 -14 27 -40 0 -40 -19 0 -19 -1 -5 -16 9 -8 21 -12 26 -9
6 4 17 2 24 -4 21 -17 29 16 11 42 -22 32 -18 40 15 33 17 -3 29 -2 26 3 -3 4
18 9 47 10 57 2 126 12 227 34 118 26 274 39 433 36 113 -2 160 0 169 9 7 7
19 12 28 12 13 0 13 -1 0 -10 -24 -16 42 -12 81 4 19 8 52 12 74 10 22 -3 60
2 85 10 25 8 59 14 75 15 28 0 29 0 11 -14z m-3981 -5 c-3 -5 5 -16 19 -25 42
-28 59 -100 49 -207 -3 -40 -13 -78 -22 -89 -14 -18 -19 -19 -46 -7 -19 8 -30
20 -30 33 1 11 -3 23 -8 26 -4 3 -10 46 -13 95 -4 79 -2 94 18 136 13 26 27
48 31 48 5 0 6 -4 2 -10z m2449 -26 c8 -3 18 -22 22 -42 4 -21 12 -40 18 -44
7 -5 3 -8 -9 -8 -11 0 -38 -11 -60 -25 -61 -37 -120 -31 -145 15 -23 43 28 93
105 103 17 2 35 5 42 6 6 0 18 -2 27 -5z m-1164 -14 c0 -5 -9 -10 -20 -10 -11
0 -20 5 -20 10 0 6 9 10 20 10 11 0 20 -4 20 -10z m-684 -74 c22 -16 69 -113
78 -161 7 -36 -10 -104 -31 -127 -41 -46 -119 6 -144 94 -19 66 -17 149 4 181
20 31 60 36 93 13z m3778 -11 c11 -8 15 -15 9 -15 -19 0 -43 12 -43 21 0 13
12 11 34 -6z m96 -15 c0 -5 -2 -10 -4 -10 -3 0 -8 5 -11 10 -3 6 -1 10 4 10 6
0 11 -4 11 -10z m-4353 -42 c-3 -7 -5 -2 -5 12 0 14 2 19 5 13 2 -7 2 -19 0
-25z m144 -20 c5 1 9 -2 9 -8 0 -5 -4 -10 -10 -10 -5 0 -10 -5 -10 -11 0 -5 3
-8 8 -6 4 3 7 -15 8 -40 0 -31 6 -48 17 -54 9 -5 14 -18 12 -30 -2 -11 0 -31
5 -45 6 -15 6 -24 0 -24 -16 0 -60 23 -60 32 0 4 -3 7 -7 7 -22 -4 -43 3 -62
19 -19 15 -20 21 -9 55 6 20 15 37 20 37 4 0 8 9 8 20 0 11 4 28 9 38 5 9 12
26 16 37 l6 20 15 -20 c9 -11 20 -19 25 -17z m3979 6 c0 -7 -27 -34 -35 -34
-3 0 -1 9 5 20 10 18 30 28 30 14z m-2549 -66 c36 -36 74 -113 84 -170 7 -38
17 -44 157 -101 47 -19 70 -55 76 -118 4 -47 14 -60 27 -39 4 6 14 8 23 6 16
-5 46 6 42 15 -7 18 39 79 60 79 5 0 10 9 10 20 0 22 15 27 24 8 3 -7 4 -2 1
12 -3 21 2 29 30 44 19 11 35 25 35 33 0 7 11 18 25 23 14 5 25 13 25 18 0 4
14 7 31 6 29 -2 30 -1 15 21 -23 35 -8 37 26 4 17 -16 36 -29 42 -29 6 0 22
-9 36 -20 23 -18 23 -20 5 -20 -28 0 -45 -13 -50 -38 -2 -12 -7 -27 -10 -32
-3 -6 -1 -10 4 -10 6 0 11 -5 11 -11 0 -6 -9 -8 -22 -3 -21 6 -21 6 -5 -10 22
-23 21 -26 -5 -23 -20 2 -23 -3 -26 -41 -4 -50 -22 -52 -36 -4 -8 30 -26 44
-26 21 0 -5 -4 -7 -10 -4 -5 3 -10 -3 -10 -14 0 -13 -9 -21 -29 -26 -20 -4
-31 -13 -33 -28 -2 -15 -11 -23 -28 -25 -14 -2 -35 -16 -48 -30 -21 -24 -22
-25 -17 -5 3 12 1 24 -5 28 -15 9 -41 -21 -34 -39 3 -9 1 -16 -5 -16 -6 0 -11
-12 -11 -26 0 -17 -4 -24 -12 -21 -10 3 -13 -10 -12 -49 1 -30 -2 -51 -7 -49
-4 3 -7 -9 -7 -27 0 -18 -5 -64 -11 -103 -15 -100 -14 -338 3 -408 14 -61 57
-120 81 -111 7 3 17 16 24 30 9 21 13 23 24 12 60 -60 86 -237 49 -319 -19
-41 -27 -48 -64 -57 -30 -8 -51 -21 -67 -42 l-23 -32 23 -24 c12 -13 20 -24
17 -24 -3 0 -45 18 -93 40 -50 23 -102 40 -123 40 -28 0 -33 3 -22 10 13 9 12
13 -8 28 -56 42 -67 53 -52 51 8 -1 21 -1 29 0 25 2 -10 32 -69 60 -30 15 -55
31 -56 36 -5 47 -5 47 -214 168 -131 76 -138 82 -150 125 -6 23 -10 243 -10
604 0 489 2 569 15 581 13 14 22 12 77 -15 35 -17 75 -34 89 -38 24 -7 28 -5
33 22 18 90 95 118 157 56z m2122 -40 c26 -14 47 -40 41 -50 -3 -5 4 -8 16 -8
12 0 18 4 15 10 -4 6 8 5 27 -3 43 -17 43 -41 1 -45 -18 -2 -33 -7 -33 -12 0
-16 -41 3 -56 26 -16 23 -26 23 -71 2 -12 -6 -37 -8 -55 -5 -39 6 -108 -15
-120 -37 -10 -18 -39 -21 -55 -5 -8 8 -17 8 -31 0 -11 -6 -28 -8 -36 -5 -9 3
-16 1 -16 -5 0 -7 -6 -11 -12 -10 -26 3 -39 -1 -33 -11 3 -5 1 -18 -4 -27 -9
-15 -10 -13 -11 15 0 17 -4 32 -10 32 -5 0 -10 -10 -10 -21 0 -18 -2 -19 -15
-9 -8 7 -21 24 -28 38 -17 36 -65 40 -73 6 -7 -25 -18 -31 -29 -13 -12 18 -87
69 -103 69 -20 0 2 -26 37 -43 15 -7 27 -22 29 -36 2 -15 0 -21 -7 -16 -6 3
-27 -3 -46 -15 -22 -13 -42 -19 -55 -15 -14 4 -20 2 -20 -9 0 -26 -19 -28 -52
-4 -18 13 -36 27 -39 32 -4 5 -14 6 -23 3 -9 -4 -16 -2 -16 3 0 6 -5 10 -11
10 -6 0 -8 -9 -4 -22 7 -22 6 -22 -11 -6 -17 17 -17 18 2 39 48 53 163 107
176 82 3 -4 3 -2 2 5 -2 6 0 12 4 13 4 0 63 6 132 13 104 11 126 11 133 -1 11
-17 41 -17 34 1 -4 10 19 14 113 20 64 3 125 4 134 0 9 -3 16 -1 16 5 0 15 20
14 54 -4 24 -13 27 -13 23 -1 -10 26 57 35 96 14z m2874 -4 c-3 -3 -12 -4 -19
-1 -8 3 -5 6 6 6 11 1 17 -2 13 -5z m-4227 -24 c14 -11 30 -20 36 -20 5 0 23
-13 39 -30 23 -24 25 -30 12 -30 -10 0 -28 -7 -40 -15 -12 -8 -32 -12 -44 -9
-19 5 -20 8 -6 35 16 33 10 51 -14 42 -11 -4 -14 -3 -9 5 4 7 1 12 -7 12 -8 0
-20 7 -27 15 -19 23 29 19 60 -5z m-80 -24 c-7 -7 -13 -7 -20 0 -6 6 -3 10 10
10 13 0 16 -4 10 -10z m1943 -3 c-7 -2 -19 -2 -25 0 -7 3 -2 5 12 5 14 0 19
-2 13 -5z m-4360 -26 c-4 -6 3 -8 15 -5 12 4 22 2 22 -4 0 -5 5 -6 10 -3 6 3
10 0 10 -8 0 -7 12 -20 28 -28 39 -20 42 -27 42 -95 0 -33 3 -64 7 -68 11 -10
12 -36 2 -36 -5 0 -9 -9 -9 -20 0 -24 -9 -25 -36 -5 -10 8 -26 15 -35 15 -9 0
-22 7 -29 15 -7 8 -16 13 -20 10 -4 -2 -14 3 -23 13 -18 20 -32 199 -16 218
11 13 40 14 32 1z m4538 -19 c0 -7 2 -23 5 -35 2 -15 -1 -23 -10 -23 -10 0
-14 11 -13 35 2 32 16 51 18 23z m-3834 -20 c-3 -8 -6 -5 -6 6 -1 11 2 17 5
13 3 -3 4 -12 1 -19z m3788 2 c3 -5 1 -10 -4 -10 -6 0 -11 5 -11 10 0 6 2 10
4 10 3 0 8 -4 11 -10z m-3851 -79 c30 -26 55 -84 66 -155 12 -76 -2 -118 -46
-138 -34 -16 -71 12 -104 78 -20 39 -25 64 -25 122 0 68 2 76 28 97 29 25 48
24 81 -4z m1363 -23 c-3 -8 -6 -5 -6 6 -1 11 2 17 5 13 3 -3 4 -12 1 -19z
m941 -18 c23 -21 42 -43 42 -48 0 -5 -14 -9 -30 -9 -20 0 -26 3 -18 9 9 5 6 8
-9 8 -12 0 -23 -6 -25 -14 -3 -13 -6 -13 -22 0 -17 12 -18 14 -3 14 20 0 23
16 5 23 -7 3 -4 6 7 7 19 1 19 1 1 15 -17 13 -15 35 3 35 4 0 26 -18 49 -40z
m-2655 -10 l67 -35 0 -86 0 -87 -35 -6 c-37 -7 -78 11 -71 31 3 6 -6 19 -20
27 -22 15 -24 22 -24 107 0 50 3 89 8 87 4 -1 38 -19 75 -38z m-123 -25 c0 -8
-4 -15 -10 -15 -5 0 -10 7 -10 15 0 8 5 15 10 15 6 0 10 -7 10 -15z m729 -37
c27 -24 50 -47 50 -53 1 -5 10 -21 21 -35 15 -19 22 -22 28 -12 5 7 24 15 44
18 30 5 38 2 63 -27 48 -58 69 -116 69 -196 0 -62 -3 -75 -24 -97 -13 -15 -32
-26 -41 -26 -29 0 -84 55 -110 110 -26 55 -38 60 -79 30 -15 -11 -37 -23 -48
-27 -21 -8 -20 -9 9 -57 42 -67 59 -119 59 -182 0 -66 -16 -103 -49 -111 -38
-10 -73 17 -105 81 -25 48 -30 70 -31 130 0 54 5 79 19 100 14 22 15 30 5 36
-6 5 -13 21 -14 37 -1 15 -5 73 -10 129 -5 71 -4 111 4 137 23 70 70 74 140
15z m1991 -20 c0 -13 -43 15 -48 31 -3 9 5 7 22 -4 14 -10 26 -22 26 -27z
m-56 6 c11 -30 6 -37 -14 -19 -16 14 -20 15 -20 4 0 -8 9 -22 20 -32 21 -18
26 -37 10 -37 -5 0 -14 -10 -21 -21 -7 -15 -8 -19 0 -15 17 11 9 -76 -9 -95
-25 -26 -84 -56 -102 -52 -9 2 -28 -3 -41 -12 -19 -12 -30 -13 -52 -5 -25 9
-26 9 -15 -5 7 -8 16 -12 21 -9 5 3 9 2 9 -3 0 -4 3 -19 7 -32 4 -15 2 -22 -4
-18 -16 10 -63 -16 -63 -35 0 -13 -9 -18 -32 -19 -24 -1 -27 -3 -10 -6 35 -7
26 -23 -13 -23 -29 0 -39 6 -54 31 -15 24 -17 35 -8 44 7 7 16 10 21 7 5 -3 6
1 1 7 -4 8 1 22 13 35 87 93 332 326 343 326 4 0 10 -7 13 -16z m36 -34 c0 -5
-5 -10 -11 -10 -5 0 -7 5 -4 10 3 6 8 10 11 10 2 0 4 -4 4 -10z m1640 -55 c0
-11 -7 -14 -23 -11 -13 2 -30 0 -38 -5 -12 -7 -12 -9 1 -9 13 0 13 -1 0 -10
-23 -15 -40 -12 -34 5 4 8 1 15 -5 15 -6 0 -11 -8 -11 -18 0 -22 -86 -112
-106 -112 -8 0 -14 -4 -14 -10 0 -15 -16 -12 -34 5 -19 20 -11 44 14 38 21 -6
36 12 19 23 -8 4 -9 3 -5 -4 5 -8 -2 -10 -23 -6 -31 7 -51 -6 -64 -38 -5 -13
-1 -18 13 -18 11 0 20 -4 20 -10 0 -14 -33 -13 -48 2 -9 9 -15 9 -24 0 -14
-14 -48 -16 -48 -3 0 5 5 22 10 36 9 23 14 26 43 20 20 -4 27 -3 19 3 -10 7
-4 11 21 15 19 3 73 24 119 47 71 34 107 46 191 59 4 0 7 -6 7 -14z m-3803
-137 c-3 -8 -6 -5 -6 6 -1 11 2 17 5 13 3 -3 4 -12 1 -19z m3348 -4 c-11 -8
-19 -18 -17 -22 2 -4 -7 -10 -20 -13 -22 -5 -22 -5 5 -12 33 -9 31 -30 -3 -35
-17 -3 -21 0 -17 12 6 15 -17 21 -80 19 -26 -1 1 27 40 41 64 23 71 24 92 25
l20 0 -20 -15z m-3408 -16 c13 -12 23 -16 23 -10 0 7 5 12 10 12 6 0 10 -11
10 -25 0 -14 7 -52 16 -84 27 -97 -1 -191 -57 -191 -78 0 -149 213 -96 293 22
34 61 36 94 5z m1802 -199 c12 -23 20 -43 18 -45 -6 -6 -57 70 -57 85 0 20 17
4 39 -40z m-45 26 c3 -9 0 -15 -9 -15 -9 0 -12 6 -9 15 4 8 7 15 9 15 2 0 5
-7 9 -15z m-1927 -62 c-3 -10 -5 -4 -5 12 0 17 2 24 5 18 2 -7 2 -21 0 -30z
m1949 -52 c9 -18 14 -35 12 -36 -7 -7 -69 57 -78 81 -28 72 33 31 66 -45z
m1171 64 c9 -24 -1 -27 -15 -5 -8 13 -8 20 -2 20 6 0 13 -7 17 -15z m-2489
-20 c40 -34 76 -146 70 -217 -9 -85 -65 -119 -121 -70 -37 33 -70 121 -71 191
-2 113 52 155 122 96z m62 0 c0 -8 -4 -17 -10 -20 -6 -4 -10 5 -10 20 0 15 4
24 10 20 6 -3 10 -12 10 -20z m2408 -11 c25 -19 3 -34 -49 -34 l-49 0 0 -72
c0 -40 -4 -78 -8 -84 -4 -6 -23 -14 -42 -18 -41 -8 -80 -37 -80 -60 0 -9 -2
-16 -5 -16 -11 0 -85 83 -85 95 0 14 86 82 135 108 17 8 39 24 50 34 11 11 35
28 53 39 32 18 34 18 46 2 7 -10 17 -18 21 -18 5 0 0 9 -9 19 -11 12 -15 25
-10 32 6 10 9 10 12 -1 3 -8 12 -20 20 -26z m-1199 -88 c39 -51 51 -88 32
-100 -10 -7 -21 16 -21 43 0 10 -21 39 -46 64 -25 26 -43 51 -39 57 9 15 23 2
74 -64z m-1881 -61 c9 -3 28 -15 42 -26 22 -19 20 -18 -20 3 -40 21 -45 27
-46 58 -1 34 -1 34 3 3 2 -19 11 -34 21 -38z m3186 -31 c7 -19 -10 -44 -31
-44 -17 0 -27 24 -19 45 7 20 42 19 50 -1z m151 3 c15 -12 16 -15 4 -23 -8 -5
-30 -9 -49 -9 -53 0 -50 -26 5 -53 51 -25 70 -58 55 -96 -17 -46 -75 -59 -132
-30 -28 14 -29 17 -15 32 14 14 20 14 42 2 19 -10 31 -11 43 -3 26 16 20 36
-16 55 -76 37 -93 80 -46 117 30 24 81 27 109 8z m565 -48 l0 -60 33 25 c19
15 47 26 62 26 l29 0 -39 -40 -39 -40 44 -45 44 -45 -30 0 c-21 0 -39 10 -59
30 -16 17 -32 30 -37 30 -4 0 -8 -13 -8 -30 0 -23 -4 -30 -20 -30 -19 0 -20 7
-20 120 0 113 1 120 20 120 18 0 20 -7 20 -61z m127 29 c-3 -8 -6 -5 -6 6 -1
11 2 17 5 13 3 -3 4 -12 1 -19z m43 5 c0 -7 -7 -13 -15 -13 -8 0 -15 6 -15 13
0 8 7 14 15 14 8 0 15 -6 15 -14z m-630 -23 c0 -15 7 -20 25 -20 18 0 25 -5
25 -20 0 -15 -7 -20 -26 -20 -23 0 -25 -3 -22 -42 2 -36 7 -44 26 -46 35 -5
30 -42 -6 -42 -46 0 -64 21 -70 78 -4 42 -8 52 -23 52 -12 0 -19 7 -19 20 0
13 7 20 20 20 13 0 20 7 20 20 0 15 7 20 25 20 18 0 25 -5 25 -20z m-705 0
c-3 -5 0 -10 8 -10 20 0 69 -62 58 -73 -5 -5 -17 -5 -28 2 -14 7 -23 7 -31 -1
-7 -7 -16 -6 -31 4 -12 8 -18 18 -14 21 3 4 1 7 -5 7 -20 0 -13 17 8 23 11 3
20 12 20 21 0 9 5 16 11 16 5 0 7 -4 4 -10z m445 -106 c0 -83 -1 -85 -22 -82
-21 3 -23 9 -26 72 -4 82 1 96 28 96 19 0 20 -6 20 -86z m465 61 c34 -33 34
-87 -1 -122 -22 -22 -32 -25 -67 -20 -50 7 -77 36 -77 81 0 75 93 114 145 61z
m175 7 c20 -16 20 -19 7 -31 -12 -9 -21 -10 -36 -1 -31 16 -63 -4 -59 -37 4
-36 32 -52 59 -35 17 11 24 11 36 0 37 -30 -69 -65 -108 -35 -46 35 -50 88
-10 128 34 34 77 38 111 11z m-1153 -67 c24 -23 31 -35 20 -35 -17 0 -78 56
-69 65 9 8 11 7 49 -30z m-1901 -283 c-6 -5 -146 76 -146 84 0 3 29 -10 64
-30 35 -20 67 -36 70 -36 3 0 7 53 8 118 l2 117 3 -124 c2 -68 1 -126 -1 -129z
m2844 13 l0 -75 -48 0 c-53 0 -72 12 -72 48 0 40 18 62 50 62 23 0 30 4 30 20
0 13 7 20 20 20 18 0 20 -7 20 -75z m50 60 c0 -8 -7 -15 -15 -15 -8 0 -15 7
-15 15 0 8 7 15 15 15 8 0 15 -7 15 -15z m730 -8 c0 -20 4 -23 28 -19 34 5 62
-19 62 -53 0 -37 -25 -54 -75 -53 l-45 1 0 73 c0 59 3 74 15 74 9 0 15 -9 15
-23z m630 -52 l0 -75 -44 0 c-49 0 -68 16 -68 55 0 35 19 55 53 55 22 0 29 5
29 20 0 11 7 20 15 20 12 0 15 -15 15 -75z m-1769 54 c30 -16 12 -30 -31 -23
-33 5 -39 3 -45 -15 -3 -11 -3 -30 0 -42 6 -19 12 -20 51 -14 47 7 59 -6 25
-25 -29 -15 -72 -12 -93 7 -23 20 -24 80 -1 105 18 20 64 24 94 7z m469 -4 c0
-8 9 -15 20 -15 11 0 20 -4 20 -10 0 -5 -9 -10 -20 -10 -15 0 -20 -7 -20 -29
0 -20 6 -30 20 -34 30 -8 24 -27 -9 -27 -31 0 -41 14 -41 60 0 16 -6 31 -12
34 -10 5 -10 7 0 12 6 3 12 12 12 20 0 8 7 14 15 14 8 0 15 -7 15 -15z m202
-37 c3 -49 5 -53 31 -56 27 -3 27 -2 27 52 0 43 3 56 15 56 22 0 24 -101 3
-127 -15 -18 -74 -16 -92 3 -22 21 -23 124 -2 124 11 0 16 -15 18 -52z m788
33 c5 -11 10 -34 10 -51 0 -47 -16 -70 -50 -70 -33 0 -60 31 -60 70 0 60 74
98 100 51z m90 -51 c0 -56 -3 -70 -15 -70 -12 0 -15 13 -15 56 0 34 -4 53 -10
49 -5 -3 -15 -3 -22 1 -14 9 18 34 44 34 16 0 18 -9 18 -70z m84 -2 c3 -60 1
-68 -16 -68 -15 0 -18 8 -18 50 0 38 -4 50 -15 50 -21 0 -19 28 3 33 38 11 44
4 46 -65z m225 52 c-23 -19 -23 -19 -3 -20 27 0 44 -19 44 -50 0 -35 -17 -50
-57 -50 -53 0 -69 49 -33 108 14 23 27 32 46 32 l26 0 -23 -20z m107 -2 c-17
-63 -17 -65 -2 -65 11 0 16 10 16 29 0 18 5 28 15 28 9 0 15 -9 15 -23 0 -13
6 -29 13 -36 10 -11 10 -14 0 -18 -7 -3 -13 -11 -13 -19 0 -8 -7 -14 -15 -14
-8 0 -15 7 -15 15 0 10 -11 15 -35 15 -19 0 -35 3 -35 6 0 26 35 104 47 104
11 0 14 -6 9 -22z m296 -3 c10 -22 8 -30 -11 -55 -20 -28 -17 -36 12 -31 4 0
7 -6 7 -14 0 -12 -13 -15 -55 -15 -30 0 -55 4 -55 9 0 5 16 21 35 35 20 16 35
36 35 48 0 17 -4 20 -29 15 -16 -3 -31 -3 -35 0 -13 13 18 33 50 33 27 0 37
-5 46 -25z m122 3 c34 -48 8 -118 -43 -118 -37 0 -54 21 -54 70 0 22 6 46 13
55 19 23 66 19 84 -7z m88 -48 c-3 -52 -7 -70 -18 -70 -10 0 -14 14 -14 50 0
38 -4 50 -15 50 -21 0 -19 28 3 33 46 12 47 11 44 -63z m-2362 29 c0 -6 -9
-13 -20 -16 -14 -4 -22 -17 -26 -44 -10 -62 -34 -51 -34 16 l0 55 40 0 c22 0
40 -5 40 -11z m104 -5 c28 -28 20 -44 -24 -44 -22 0 -40 -5 -40 -11 0 -6 14
-9 33 -7 23 2 32 -1 32 -12 0 -10 -12 -16 -37 -18 -28 -2 -40 2 -52 20 -20 29
-20 47 1 70 20 22 66 24 87 2z m196 -39 c0 -42 -3 -55 -15 -55 -12 0 -15 13
-15 55 0 42 3 55 15 55 12 0 15 -13 15 -55z m143 40 c1 -5 -6 -11 -15 -13 -11
-2 -18 3 -18 13 0 17 30 18 33 0z m311 9 c28 -11 17 -27 -14 -20 -17 3 -30 1
-30 -4 0 -6 8 -10 18 -10 37 0 58 -52 26 -64 -38 -15 -93 1 -80 23 5 8 13 8
28 0 13 -7 24 -7 30 -1 7 7 0 12 -20 17 -34 7 -48 31 -31 51 12 15 46 18 73 8z
m130 -10 c28 -28 20 -44 -24 -44 -22 0 -40 -4 -40 -9 0 -14 23 -19 42 -10 20
11 36 -7 20 -23 -19 -19 -75 -5 -91 23 -13 24 -13 29 2 53 20 30 66 35 91 10z
m106 5 c0 -5 -8 -13 -17 -16 -24 -9 -33 -23 -33 -55 0 -18 -5 -28 -15 -28 -11
0 -15 13 -15 54 l0 54 40 0 c22 0 40 -4 40 -9z m227 -1 c6 -7 13 -32 16 -55
l5 -41 -52 1 c-46 2 -51 5 -54 26 -4 27 12 41 48 41 19 0 22 2 10 9 -8 6 -18
7 -23 4 -13 -8 -39 6 -32 17 9 14 71 12 82 -2z m-2169 -68 c-4 -11 -101 -90
-111 -90 -4 0 -5 -5 -1 -12 4 -7 3 -8 -4 -4 -9 5 -9 13 -2 27 6 10 10 27 8 37
-2 12 3 16 16 14 13 -3 17 1 13 12 -4 9 -1 13 6 10 7 -2 19 4 26 15 11 15 19
18 33 10 11 -6 18 -14 16 -19z m-494 -15 c3 -8 3 -22 -1 -31 -5 -13 -7 -13
-14 -2 -11 17 -11 48 0 48 5 0 11 -7 15 -15z m1889 0 c1 -5 -6 -11 -15 -13
-11 -2 -18 3 -18 13 0 17 30 18 33 0z m-2563 -25 c0 -5 -5 -10 -11 -10 -5 0
-7 5 -4 10 3 6 8 10 11 10 2 0 4 -4 4 -10z m635 -57 c-7 -17 -8 -16 -17 4 -6
12 -7 30 -3 40 7 17 8 16 17 -4 6 -12 7 -30 3 -40z m399 16 c-10 -12 -18 -30
-16 -40 2 -11 -4 -22 -15 -26 -10 -4 -21 -11 -25 -17 -5 -8 -8 -8 -8 0 0 6 7
17 15 24 8 7 15 18 15 25 0 16 41 68 48 61 3 -3 -3 -15 -14 -27z m3103 24
c-20 -2 -52 -2 -70 0 -17 2 0 4 38 4 39 0 53 -2 32 -4z m-4277 -92 c0 -9 -52
-22 -59 -15 -4 3 37 22 52 23 4 1 7 -3 7 -8z m1104 -65 c7 -36 6 -38 -8 -27
-16 14 -22 52 -9 64 9 9 9 8 17 -37z m-456 -5 c11 -7 11 -9 -1 -14 -19 -7 -57
2 -57 14 0 11 41 11 58 0z m-353 -81 c4 -6 -7 -10 -27 -10 -25 0 -29 3 -18 10
19 13 37 13 45 0z m-100 -20 c3 -5 2 -10 -4 -10 -5 0 -13 5 -16 10 -3 6 -2 10
4 10 5 0 13 -4 16 -10z m-550 -20 c3 -5 1 -10 -4 -10 -6 0 -11 5 -11 10 0 6 2
10 4 10 3 0 8 -4 11 -10z m240 -170 c3 -5 2 -10 -4 -10 -5 0 -13 5 -16 10 -3
6 -2 10 4 10 5 0 13 -4 16 -10z m-3935 -990 c0 -22 -4 -40 -10 -40 -5 0 -10
14 -10 30 0 17 -5 30 -11 30 -5 0 -7 5 -4 10 3 6 13 10 21 10 10 0 14 -12 14
-40z m68 0 c1 -36 -2 -40 -23 -40 -13 0 -27 5 -30 10 -3 6 4 10 16 10 17 0 19
3 10 14 -9 11 -9 15 1 19 7 3 3 6 -10 6 -30 1 -18 21 12 21 21 0 24 -5 24 -40z
m69 24 c8 -22 -13 -64 -33 -64 -13 0 -14 3 -4 15 10 12 10 15 -4 15 -10 0 -16
9 -16 25 0 20 5 25 25 25 14 0 28 -7 32 -16z m68 -24 c0 -29 -4 -36 -24 -38
-29 -5 -39 9 -33 49 4 26 8 30 31 27 23 -3 26 -8 26 -38z m70 0 c0 -31 -3 -35
-27 -38 -19 -2 -28 1 -28 11 0 11 7 13 23 10 17 -5 20 -3 10 7 -6 7 -9 19 -6
26 4 10 0 12 -13 7 -12 -4 -15 -3 -10 6 4 7 18 11 29 9 18 -2 22 -10 22 -38z
m70 0 c0 -31 -3 -35 -25 -35 -19 0 -26 6 -28 23 -5 36 5 54 30 50 19 -2 23 -9
23 -38z m73 -3 c2 -37 1 -38 -25 -35 -23 2 -28 8 -29 33 -2 39 3 47 29 43 17
-2 22 -11 25 -41z m112 1 c0 -21 -4 -38 -10 -38 -6 0 -9 3 -9 8 3 20 -2 52 -9
52 -4 0 -13 -13 -19 -30 -6 -17 -19 -30 -28 -30 -14 0 -15 3 -5 15 10 12 10
15 -4 15 -10 0 -16 9 -16 24 0 23 3 25 50 24 l50 -1 0 -39z m38 17 c-3 -14 -1
-25 3 -25 5 0 9 9 9 20 0 28 17 25 22 -4 6 -28 -10 -60 -19 -38 -2 6 -14 12
-25 12 -14 0 -18 5 -14 16 3 9 6 22 6 30 0 8 5 14 11 14 7 0 9 -10 7 -25z"/>
<path d="M2670 3783 c5 -2 10 -9 10 -14 0 -6 -4 -7 -10 -4 -5 3 -10 2 -10 -2
0 -5 9 -14 20 -21 12 -7 20 -8 20 -2 0 5 -4 10 -9 10 -5 0 -8 7 -7 16 0 9 -5
18 -12 20 -7 1 -8 0 -2 -3z"/>
<path d="M3531 3319 c-19 -20 -20 -57 -3 -68 5 -3 17 -28 27 -56 29 -79 38
-84 75 -45 37 39 36 65 -5 130 -14 22 -25 44 -25 50 0 18 -49 10 -69 -11z"/>
<path d="M6740 3109 c0 -5 5 -7 10 -4 6 3 10 8 10 11 0 2 -4 4 -10 4 -5 0 -10
-5 -10 -11z"/>
<path d="M6860 3110 c0 -5 6 -10 14 -10 8 0 18 5 21 10 3 6 -3 10 -14 10 -12
0 -21 -4 -21 -10z"/>
<path d="M4265 3190 c-18 -20 -18 -21 0 -34 10 -7 31 -13 46 -14 36 -1 87 -31
95 -55 11 -34 14 -12 3 25 -11 43 -70 98 -103 98 -13 0 -31 -9 -41 -20z"/>
<path d="M4025 3128 c-3 -13 -4 -183 -3 -378 l3 -355 25 -1 c14 0 32 3 40 7 8
4 23 3 33 -2 10 -6 23 -9 29 -7 6 2 -5 12 -25 22 -28 13 -37 23 -37 42 0 22 3
24 23 18 12 -4 27 -7 34 -7 7 0 11 -5 10 -10 -1 -5 19 -17 44 -26 53 -18 79
-37 79 -57 0 -21 -16 -25 -46 -9 -16 8 -36 15 -44 14 -8 0 -3 -5 13 -11 15 -5
27 -14 27 -19 0 -5 7 -9 15 -9 8 0 15 -4 15 -9 0 -11 32 -22 87 -30 36 -6 44
-4 49 11 3 10 10 18 15 18 13 0 11 19 -5 35 -11 11 -133 73 -196 99 -8 3 -46
25 -84 49 -77 46 -91 72 -80 141 6 36 8 38 38 33 17 -3 80 -28 139 -56 108
-51 164 -67 122 -35 -23 18 -172 94 -225 114 -52 21 -80 57 -80 106 0 22 6 48
13 58 15 20 13 21 231 -83 159 -76 315 -141 338 -141 17 0 48 96 48 148 0 47
-25 103 -43 96 -8 -3 -18 0 -22 6 -8 12 -111 60 -130 60 -7 0 -20 -20 -29 -44
-21 -54 -56 -80 -97 -71 -54 12 -101 76 -129 180 l-17 60 -79 32 c-43 18 -82
33 -86 33 -4 0 -10 -10 -13 -22z"/>
<path d="M4257 2970 c7 -27 64 -87 90 -95 28 -8 70 30 78 70 5 26 4 27 -4 8
-6 -13 -13 -23 -16 -23 -3 0 -38 14 -77 30 -38 17 -71 30 -73 30 -2 0 -1 -9 2
-20z"/>
<path d="M4445 2331 c-8 -15 21 -39 86 -68 39 -19 59 -34 59 -45 0 -20 -44
-26 -55 -8 -3 6 -14 10 -23 10 -11 -1 -6 -7 13 -17 17 -9 37 -24 46 -35 9 -10
20 -18 24 -18 4 0 20 -9 36 -21 l29 -20 0 91 0 90 -25 -6 c-25 -6 -115 15
-115 27 0 6 -46 29 -60 29 -5 0 -11 -4 -15 -9z"/>
<path d="M4445 2240 c3 -5 16 -10 28 -9 21 0 21 1 2 9 -28 12 -37 12 -30 0z"/>
<path d="M4026 2211 c-2 -3 -4 -47 -5 -98 -3 -132 -3 -132 187 -231 139 -72
162 -81 170 -66 22 39 2 65 -75 100 -41 19 -94 48 -117 65 -22 17 -63 44 -90
60 l-48 30 4 73 c2 55 0 73 -10 73 -7 0 -14 -3 -16 -6z"/>
<path d="M4080 2110 c0 -26 7 -33 50 -55 58 -29 56 -29 64 -10 10 28 -12 64
-50 80 -53 22 -64 19 -64 -15z"/>
<path d="M6345 3130 c-3 -5 3 -10 15 -10 12 0 18 5 15 10 -3 6 -10 10 -15 10
-5 0 -12 -4 -15 -10z"/>
<path d="M6000 3111 c0 -5 5 -13 10 -16 6 -3 10 -2 10 4 0 5 -4 13 -10 16 -5
3 -10 2 -10 -4z"/>
<path d="M5760 3061 c0 -9 30 -24 36 -18 2 1 -6 8 -16 15 -11 7 -20 8 -20 3z"/>
<path d="M5665 3020 c-6 -10 43 -35 52 -26 5 5 -26 36 -37 36 -5 0 -12 -5 -15
-10z"/>
<path d="M2860 2882 c0 -44 4 -61 15 -66 10 -3 15 1 15 12 0 13 2 14 9 4 7
-11 9 -11 14 2 6 14 9 14 29 -6 21 -21 22 -21 29 -2 6 17 7 16 11 -6 4 -17 6
-12 7 16 1 45 7 39 -121 102 -5 2 -8 -24 -8 -56z"/>
<path d="M5201 2524 c0 -11 3 -14 6 -6 3 7 2 16 -1 19 -3 4 -6 -2 -5 -13z"/>
<path d="M6935 2680 c3 -5 11 -10 16 -10 6 0 7 5 4 10 -3 6 -11 10 -16 10 -6
0 -7 -4 -4 -10z"/>
<path d="M6770 2630 c0 -5 5 -10 10 -10 6 0 10 5 10 10 0 6 -4 10 -10 10 -5 0
-10 -4 -10 -10z"/>
<path d="M5860 2086 c0 -2 7 -6 15 -10 8 -3 15 -1 15 4 0 6 -7 10 -15 10 -8 0
-15 -2 -15 -4z"/>
<path d="M6702 2058 c-30 -30 -2 -86 37 -73 29 9 36 42 15 66 -20 22 -35 24
-52 7z"/>
<path d="M6664 1745 c-8 -20 4 -35 27 -35 14 0 19 7 19 25 0 18 -5 25 -20 25
-11 0 -23 -7 -26 -15z"/>
<path d="M7534 1745 c-4 -9 -2 -21 4 -27 16 -16 47 -5 47 17 0 26 -42 34 -51
10z"/>
<path d="M8080 1735 c0 -20 5 -25 25 -25 20 0 25 5 25 25 0 20 -5 25 -25 25
-20 0 -25 -5 -25 -25z"/>
<path d="M7787 1770 c-8 -31 3 -61 22 -58 11 2 16 14 16 38 0 40 -29 55 -38
20z"/>
<path d="M8226 1753 c-14 -15 -5 -43 14 -43 13 0 20 7 20 19 0 19 -23 35 -34
24z"/>
<path d="M8710 1750 c0 -33 3 -40 20 -40 17 0 20 7 20 40 0 33 -3 40 -20 40
-17 0 -20 -7 -20 -40z"/>
<path d="M6545 1760 c-3 -5 3 -10 15 -10 12 0 18 5 15 10 -3 6 -10 10 -15 10
-5 0 -12 -4 -15 -10z"/>
<path d="M7325 1760 c-4 -6 6 -10 22 -10 22 0 25 2 13 10 -19 12 -27 12 -35 0z"/>
<path d="M7670 1720 c-8 -5 -11 -12 -8 -16 10 -9 38 3 38 16 0 12 -10 13 -30
0z"/>
<path d="M290 219 c0 -5 5 -7 10 -4 6 3 10 8 10 11 0 2 -4 4 -10 4 -5 0 -10
-5 -10 -11z"/>
<path d="M360 189 c0 -5 5 -7 10 -4 6 3 10 8 10 11 0 2 -4 4 -10 4 -5 0 -10
-5 -10 -11z"/>
<path d="M500 204 c0 -14 4 -23 10 -19 6 3 10 15 10 26 0 10 -4 19 -10 19 -5
0 -10 -12 -10 -26z"/>
<path d="M640 219 c0 -5 5 -7 10 -4 6 3 10 8 10 11 0 2 -4 4 -10 4 -5 0 -10
-5 -10 -11z"/>
</g>
</svg>
